HIERARCHY
ROOT Hips
{
	OFFSET -3.958830 18.904000 13.208200
	CHANNELS 6 Xposition Yposition Zposition Zrotation Yrotation Xrotation 
	JOINT LHipJoint
	{
		OFFSET 0.000000 0.000000 0.000000
		CHANNELS 3 Zrotation Yrotation Xrotation
		JOINT LeftUpLeg
		{
			OFFSET 1.800000 -1.400000 0.085000
			CHANNELS 3 Zrotation Yrotation Xrotation
			JOINT LeftLeg
			{
				OFFSET 2.215000 -6.000000 0.000000
				CHANNELS 3 Zrotation Yrotation Xrotation
				JOINT LeftFoot
				{
					OFFSET 2.500000 -6.900000 0.000000
					CHANNELS 3 Zrotation Yrotation Xrotation
					JOINT LeftToeBase
					{
						OFFSET 0.200000 -0.500000 1.950000
						CHANNELS 3 Zrotation Yrotation Xrotation
						End Site
						{
							OFFSET 0.000000 0.000000 0.000000
						}
					}
				}
			}
		}
	}
	JOINT RHipJoint
	{
		OFFSET 0.000000 0.000000 0.000000
		CHANNELS 3 Zrotation Yrotation Xrotation
		JOINT RightUpLeg
		{
			OFFSET -1.800000 -1.400000 0.085000
			CHANNELS 3 Zrotation Yrotation Xrotation
			JOINT RightLeg
			{
				OFFSET -2.215000 -6.000000 0.000000
				CHANNELS 3 Zrotation Yrotation Xrotation
				JOINT RightFoot
				{
					OFFSET -2.500000 -6.900000 0.000000
					CHANNELS 3 Zrotation Yrotation Xrotation
					JOINT RightToeBase
					{
						OFFSET -0.200000 -0.500000 1.950000
						CHANNELS 3 Zrotation Yrotation Xrotation
						End Site
						{
							OFFSET 0.000000 0.000000 0.000000
						}
					}
				}
			}
		}
	}
	JOINT LowerBack
	{
		OFFSET 0.000000 0.000000 0.000000
		CHANNELS 3 Zrotation Yrotation Xrotation
		JOINT Spine
		{
			OFFSET -0.087000 1.940000 -0.288900
			CHANNELS 3 Zrotation Yrotation Xrotation
			JOINT Spine1
			{
				OFFSET 0.000000 1.950000 0.060000
				CHANNELS 3 Zrotation Yrotation Xrotation
				JOINT Neck
				{
					OFFSET 0.000000 0.000000 0.000000
					CHANNELS 3 Zrotation Yrotation Xrotation
					JOINT Neck1
					{
						OFFSET 0.000000 1.600000 0.340000
						CHANNELS 3 Zrotation Yrotation Xrotation
						JOINT Head
						{
							OFFSET 0.000000 1.667000 -0.240000
							CHANNELS 3 Zrotation Yrotation Xrotation
							End Site
							{
								OFFSET 0.000000 0.000000 0.000000
							}
						}
					}
				}
				JOINT LeftShoulder
				{
					OFFSET 0.000000 0.000000 0.000000
					CHANNELS 3 Zrotation Yrotation Xrotation
					JOINT LeftArm
					{
						OFFSET 2.700000 1.550000 -0.730000
						CHANNELS 3 Zrotation Yrotation Xrotation
						JOINT LeftForeArm
						{
							OFFSET 5.450000 0.000000 0.000000
							CHANNELS 3 Zrotation Yrotation Xrotation
							JOINT LeftHand
							{
								OFFSET 3.450000 0.000000 0.000000
								CHANNELS 3 Zrotation Yrotation Xrotation
								JOINT LeftHandIndex1
								{
									OFFSET 0.750000 0.000000 0.000000
									CHANNELS 3 Zrotation Yrotation Xrotation
									End Site
									{
										OFFSET 0.000000 0.000000 0.000000
									}
								}
							}
						}
					}
				}
				JOINT RightShoulder
				{
					OFFSET 0.000000 0.000000 0.000000
					CHANNELS 3 Zrotation Yrotation Xrotation
					JOINT RightArm
					{
						OFFSET -2.700000 1.550000 -0.730000
						CHANNELS 3 Zrotation Yrotation Xrotation
						JOINT RightForeArm
						{
							OFFSET -5.450000 0.000000 0.000000
							CHANNELS 3 Zrotation Yrotation Xrotation
							JOINT RightHand
							{
								OFFSET -3.450000 0.000000 0.000000
								CHANNELS 3 Zrotation Yrotation Xrotation
								JOINT RightHandIndex1
								{
									OFFSET -0.750000 0.000000 0.000000
									CHANNELS 3 Zrotation Yrotation Xrotation
									End Site
									{
										OFFSET 0.000000 0.000000 0.000000
									}
								}
							}
						}
					}
				}
			}
		}
	}
}
MOTION
Frames: 9
Frame Time: 0.016667
-29.110960 16.501090 -12.583680 20.320624 -21.797789 -22.074577 -15.397969 10.457768 7.723352 20.751825 -15.215142 -41.474897 -50.818363 52.771420 63.066790 3.201199 17.575517 -0.782579 0.637880 0.571150 0.542360 18.208293 -9.188445 1.945791 -27.618734 -1.208422 -20.306606 13.581713 -16.648418 41.524916 -1.042072 -7.732306 1.416616 0.355520 -0.089150 -0.024620 -3.119435 -2.824159 -10.958548 9.787315 -7.609188 33.953100 -10.997969 -1.569299 21.212361 5.892182 3.562893 -29.908245 -2.166294 -9.240881 62.597513 2.500300 -13.846760 -14.455750 -8.354257 -51.048099 3.095137 -3.603222 -30.103440 -18.279690 -9.963575 -42.111892 2.648057 -2.236222 3.895348 0.540950 -0.258720 0.306210 0.153120 -3.929763 55.567375 13.045285 7.675726 37.032039 -12.288141 -25.998159 12.426107 -5.333735 3.026204 -1.239070 -0.091310 0.420850 -0.238980 -0.052480 
-29.176000 16.614330 -12.645310 22.763770 -23.529363 -23.785090 -15.719126 11.038795 7.974263 22.411104 -16.812401 -44.025321 -52.548530 53.848096 63.265489 3.225375 17.624024 -0.872081 0.628270 0.550830 0.611010 17.961076 -8.847651 1.359332 -26.867300 -2.486984 -18.682350 10.302169 -14.532383 39.210983 -0.908050 -6.899867 1.637343 0.295820 -0.210200 0.064660 -2.163567 -4.903270 -10.645803 0.126825 -11.728886 36.009665 -17.126652 -6.771002 25.306697 8.801094 8.758535 -32.887637 -5.435326 -6.046977 61.826847 -0.156940 -11.320310 -14.432540 1.900187 -36.411445 -9.702171 3.723662 -24.292293 -20.316280 -15.970034 -44.616979 5.281108 -2.088720 4.529755 0.574090 -0.268790 0.385980 0.058140 -25.630230 37.930313 55.033059 -74.758842 37.461797 -166.100298 -14.707119 40.828784 -12.022566 5.080241 -1.837788 -0.013170 0.293000 -0.206810 -0.109460 
-29.231130 16.739700 -12.612330 23.774803 -25.907245 -23.375028 -15.667456 10.722026 8.176489 22.377896 -17.687925 -47.898092 -61.851043 50.160238 52.541256 3.206893 16.407919 -0.533472 0.367420 0.225840 0.425260 17.898660 -9.702239 1.333503 -24.502171 -2.678485 -19.100115 6.674820 -12.092945 36.903264 -0.660567 -6.060228 1.976314 0.012320 -0.177960 0.089760 -1.997305 -3.355544 -10.768615 3.837075 -5.456845 36.369229 -9.269276 -1.947690 24.771366 6.460296 6.440140 -39.817857 -10.286130 -8.337973 61.937901 0.654570 -16.111240 -6.988550 1.897639 -48.354594 -13.624949 8.549899 -21.983292 -25.323013 -28.777222 -45.402037 11.262324 -0.957267 5.704671 0.494610 -0.258200 0.313980 -0.019740 -16.177284 47.723531 66.422877 -70.314970 45.704447 154.078174 28.013262 77.163697 137.414055 0.219431 7.680226 0.053270 0.147600 -0.094800 -0.048970 
-29.282690 16.968800 -12.680160 23.811945 -24.776878 -24.048323 -15.516876 10.856562 8.283348 25.487645 -17.828454 -46.334262 -62.680120 46.831648 49.875922 3.133920 15.701702 -0.468184 0.422670 0.322610 0.410580 18.042860 -10.035375 0.863321 -22.417303 -3.556196 -14.554401 3.185266 -9.175710 30.415321 -0.559316 -4.732356 2.450350 -0.046880 -0.288780 0.134130 -2.481952 -3.164945 -10.409708 6.195166 -7.145799 38.838822 -8.659668 -0.573730 18.708687 3.940901 4.728957 -41.449247 -14.377687 -4.690107 69.376810 5.556490 -16.836350 -8.586550 -1.279149 -48.126474 -13.739840 10.998490 -21.301219 -21.052747 -33.458114 -50.353639 16.563122 -1.026385 5.619469 0.542510 -0.374320 0.435990 -0.031980 -5.661492 44.900044 67.557027 -72.766062 58.003418 146.355923 52.311498 64.654557 141.592169 6.651460 3.683827 0.202690 0.041080 -0.119880 0.006540 
-29.391470 17.116640 -12.768580 27.548735 -17.494303 -24.660928 -15.151260 10.393627 8.270237 26.577348 -12.363907 -43.161882 -45.482592 49.580961 62.864842 3.612191 16.910411 -0.677778 0.278180 0.193840 0.230010 18.347425 -10.456616 1.202067 -27.795299 -2.330033 -11.057744 3.976371 -8.588879 25.606828 -0.500280 -4.676166 2.536306 -0.258400 -0.243000 0.140600 -3.739828 -1.084185 -11.211280 4.488976 -4.880756 41.425523 -7.184388 0.266525 0.476995 -0.177069 0.034927 -32.936623 -12.473208 -4.109209 75.397098 7.127580 -17.618490 -0.971250 -9.274274 -48.855545 -0.656603 10.408216 -24.690253 -9.345678 -32.397645 -58.116041 22.529806 -2.071989 4.975805 0.427570 -0.363140 0.410110 0.023880 12.314379 50.285063 25.586562 20.003896 47.481482 -12.635012 -47.002404 8.489887 -10.571895 2.303019 -0.925813 0.315000 -0.080970 -0.128380 0.123670 
-29.470930 17.322330 -12.797330 31.003941 -14.685560 -23.601231 -15.163052 10.218784 7.575332 28.651847 -8.860475 -39.747188 -32.003604 44.514204 68.611098 3.710742 16.861919 -0.664414 0.294120 0.263920 0.094570 18.436040 -10.321034 1.323375 -31.198474 -2.010343 -9.529630 4.870380 -8.182220 20.905176 -0.499560 -4.707907 2.595607 -0.329750 -0.233040 0.147100 -3.952169 -0.431107 -10.313860 1.073438 -4.507786 34.771549 -7.349696 0.404635 1.095156 -1.280372 -3.423022 -31.313808 -19.265098 -1.297534 76.980821 7.972410 -21.911750 6.057420 -9.627162 -45.403501 1.571075 16.189566 -21.286497 -6.455970 -36.397939 -67.179009 29.678734 -2.406474 4.503048 0.271480 -0.383360 0.410940 0.155860 14.646626 48.968592 23.077190 11.637597 37.427134 -7.041458 -30.789238 11.201246 -4.972644 3.114460 -1.333558 0.478220 -0.185590 -0.218760 0.284770 
-29.535780 17.575450 -12.846070 31.917389 -14.628296 -22.329904 -15.118789 10.132800 7.511412 33.756688 -3.604557 -36.385228 -40.636819 42.907575 54.763744 3.519602 14.783341 -0.176243 0.195530 0.182730 -0.091640 18.491569 -10.344185 1.532060 -30.702718 -0.992609 -8.233505 7.264939 -8.318353 19.062746 -0.438819 -4.871970 2.631281 -0.485710 -0.181810 0.185840 -4.127850 0.126097 -10.382877 0.990166 -4.060364 32.785954 -5.982329 1.347339 -2.307563 -2.222181 -6.304404 -32.954560 -26.675545 2.842203 78.557776 3.480460 -24.259430 20.435230 -12.626255 -43.906543 2.821826 23.604373 -18.656955 -3.300360 -55.275643 -70.323551 47.984645 -2.332734 5.045983 0.065650 -0.319940 0.341240 0.229340 21.040057 47.388408 24.604281 8.833044 32.613865 -6.161955 -26.420793 10.753471 -3.167841 3.291221 -1.405191 0.625740 -0.354810 -0.230650 0.433450 
-29.644140 17.675240 -12.951920 29.896853 -21.168996 -17.630380 -15.343169 9.843032 7.993236 49.223048 8.563755 -30.768447 -45.772720 41.024416 40.902503 3.083440 13.021930 0.114287 -0.003480 -0.137660 -0.278090 18.505856 -9.960766 1.656404 -23.547635 1.701417 -13.645648 7.355246 -5.924300 14.110632 -0.024221 -3.868237 2.979235 -0.656170 -0.139520 0.443140 -3.970274 0.674777 -10.811587 4.271173 -1.801608 28.229742 -5.183331 5.559628 -1.491008 -3.113179 -8.089176 -32.402100 -26.394060 -0.422112 71.241728 -4.271560 -23.312580 32.596110 -9.389232 -39.649192 4.368444 28.111612 -10.181340 -1.403256 -107.186115 -77.454034 95.454509 -2.552047 3.346442 -0.159390 -0.109460 0.151690 0.119400 20.710400 46.153329 24.182238 6.319244 30.785841 -5.869856 -23.787317 7.196487 -2.023291 3.502690 -1.705686 0.728700 -0.799220 -0.094160 0.467380 
-29.760710 17.719940 -12.964250 30.632468 -21.054334 -10.552196 -15.763596 8.497171 8.099184 53.228214 14.331566 -31.698966 -51.192220 33.449296 25.039552 2.842125 12.425592 0.314714 -0.627030 -1.003460 -0.583780 18.369789 -8.011021 3.463976 -28.291007 5.590144 -17.130532 27.006601 -5.464327 1.573079 0.115022 -5.546401 2.282128 -1.044120 0.118510 0.720080 -3.501833 0.748073 -11.848234 -2.887910 2.906957 18.738138 2.642506 4.694435 1.232258 -6.099258 -5.768264 -28.600838 -17.146171 -12.559357 57.181944 -22.086940 -12.966150 52.768140 -5.275096 -40.776647 5.700849 38.946766 -16.965010 6.758654 -124.112791 -4.336316 16.638078 -2.902471 5.054750 -0.577010 0.389630 -0.288510 -0.131910 21.323467 43.296097 22.507716 6.204902 29.029821 -5.265831 -22.698092 6.273225 -1.499088 3.532793 -2.052566 0.660890 -1.227900 0.256140 0.423080 
